# xmcd CD database file
#
# Track frame offsets:
#	150
#	48197
#	58674
#	67180
#	83130
#	148141
#	170146
#	186585
#	217723
#
# Disc length: 3717 seconds
#
# Revision: 0
# Processed by: cddbd v1.5.2PL0 Copyright (c) Steve Scherf et al.
# Submitted via: CDex 1.70beta2
#
DISCID=890e8309
DTITLE=Zappa Plays Zappa - Stockholm (05/19/2006) Disk Two
DYEAR=2006
DGENRE=Jazz
TTITLE0=King Kong Variations
TTITLE1=Don't Eat Yellow Snow
TTITLE2=St. Alphono's Pancake Breakfast
TTITLE3=Father O'Blivion
TTITLE4=Inca Roads
TTITLE5=I'm So Cute
TTITLE6=Try'in To Grow
TTITLE7=City Of Tiny Lights
TTITLE8=Punky's Whips
EXTD=YEAR: 2006
EXTT0=
EXTT1=
EXTT2=
EXTT3=
EXTT4=
EXTT5=
EXTT6=
EXTT7=
EXTT8=
PLAYORDER=
